<?xml version="1.0" encoding="UTF-8" standalone="no"?><svg xmlns="http://www.w3.org/2000/svg" xmlns:xlink="http://www.w3.org/1999/xlink" contentScriptType="application/ecmascript" contentStyleType="text/css" height="380px" preserveAspectRatio="none" style="width:691px;height:380px;" version="1.1" viewBox="0 0 691 380" width="691px" zoomAndPan="magnify"><defs><filter height="300%" id="f19qsoquij7yfo" width="300%" x="-1" y="-1"><feGaussianBlur result="blurOut" stdDeviation="2.0"/><feColorMatrix in="blurOut" result="blurOut2" type="matrix" values="0 0 0 0 0 0 0 0 0 0 0 0 0 0 0 0 0 0 .4 0"/><feOffset dx="4.0" dy="4.0" in="blurOut2" result="blurOut3"/><feBlend in="SourceGraphic" in2="blurOut3" mode="normal"/></filter></defs><g><!--MD5=[dcc7fca67b47b28e5d5fa50443da3728]
cluster pipeline2--><polygon fill="#FFFFFF" filter="url(#f19qsoquij7yfo)" points="22,208,93,208,100,231.6094,669.88,231.6094,669.88,368,22,368,22,208" style="stroke: #000000; stroke-width: 1.5;"/><line style="stroke: #000000; stroke-width: 1.5;" x1="22" x2="100" y1="231.6094" y2="231.6094"/><text fill="#33335B" font-family="sans-serif" font-size="14" font-weight="bold" lengthAdjust="spacingAndGlyphs" textLength="65" x="26" y="224.5332">pipeline2</text><!--MD5=[08f6cce9cdb713ff0963d796e80c42eb]
cluster pipeline1--><polygon fill="#FFFFFF" filter="url(#f19qsoquij7yfo)" points="22,24,93,24,100,47.6094,669.88,47.6094,669.88,184,22,184,22,24" style="stroke: #000000; stroke-width: 1.5;"/><line style="stroke: #000000; stroke-width: 1.5;" x1="22" x2="100" y1="47.6094" y2="47.6094"/><text fill="#33335B" font-family="sans-serif" font-size="14" font-weight="bold" lengthAdjust="spacingAndGlyphs" textLength="65" x="26" y="40.5332">pipeline1</text><ellipse cx="57.9706" cy="307.0017" fill="#F6ED80" filter="url(#f19qsoquij7yfo)" rx="19.9706" ry="15.4517" style="stroke: #A80036; stroke-width: 1.5;"/><text fill="#33335B" font-family="sans-serif" font-size="14" lengthAdjust="spacingAndGlyphs" textLength="24" x="45.9706" y="312.3064">LL3</text><!--MD5=[314e2eb86b776a866fe0256c837c215b]
entity buf3--><rect fill="#FFFFFF" filter="url(#f19qsoquij7yfo)" height="90.4375" style="stroke: #000000; stroke-width: 1.5;" width="94" x="141.94" y="261.78"/><text fill="#33335B" font-family="sans-serif" font-size="14" lengthAdjust="spacingAndGlyphs" textLength="35" x="151.94" y="286.3132">BUF3</text><text fill="#33335B" font-family="sans-serif" font-size="14" lengthAdjust="spacingAndGlyphs" textLength="0" x="155.94" y="303.9226"/><text fill="#33335B" font-family="sans-serif" font-size="14" lengthAdjust="spacingAndGlyphs" textLength="74" x="151.94" y="321.532">0ms of data</text><text fill="#33335B" font-family="sans-serif" font-size="14" lengthAdjust="spacingAndGlyphs" textLength="0" x="155.94" y="339.1413"/><ellipse cx="345.9419" cy="337.0017" fill="#ADD1B2" filter="url(#f19qsoquij7yfo)" rx="22.0919" ry="15.4517" style="stroke: #A80036; stroke-width: 1.5;"/><text fill="#33335B" font-family="sans-serif" font-size="14" lengthAdjust="spacingAndGlyphs" textLength="27" x="332.4419" y="342.3064">DP2</text><path d="M303.44,243.65 L303.44,286.3531 A0,0 0 0 0 303.44,286.3531 L341.94,286.3531 L345.94,321.25 L349.94,286.3531 L388.44,286.3531 A0,0 0 0 0 388.44,286.3531 L388.44,253.65 L378.44,243.65 L303.44,243.65 A0,0 0 0 0 303.44,243.65 " fill="#F6ED80" filter="url(#f19qsoquij7yfo)" style="stroke: #D6D6DE; stroke-width: 1.0;"/><path d="M378.44,243.65 L378.44,253.65 L388.44,253.65 L378.44,243.65 " fill="#F6ED80" style="stroke: #D6D6DE; stroke-width: 1.0;"/><text fill="#33335B" font-family="sans-serif" font-size="13" lengthAdjust="spacingAndGlyphs" textLength="64" x="309.44" y="262.1451">period 5ms</text><text fill="#33335B" font-family="sans-serif" font-size="13" lengthAdjust="spacingAndGlyphs" textLength="56" x="309.44" y="278.4967">LPT: 1ms</text><!--MD5=[e9ef97092fea0e88891fe29442383f85]
entity buf4--><rect fill="#FFFFFF" filter="url(#f19qsoquij7yfo)" height="90.4375" style="stroke: #000000; stroke-width: 1.5;" width="94" x="455.94" y="261.78"/><text fill="#33335B" font-family="sans-serif" font-size="14" lengthAdjust="spacingAndGlyphs" textLength="35" x="465.94" y="286.3132">BUF4</text><text fill="#33335B" font-family="sans-serif" font-size="14" lengthAdjust="spacingAndGlyphs" textLength="0" x="469.94" y="303.9226"/><text fill="#33335B" font-family="sans-serif" font-size="14" lengthAdjust="spacingAndGlyphs" textLength="74" x="465.94" y="321.532">0ms of data</text><text fill="#33335B" font-family="sans-serif" font-size="14" lengthAdjust="spacingAndGlyphs" textLength="0" x="469.94" y="339.1413"/><ellipse cx="633.9106" cy="307.0017" fill="#F6ED80" filter="url(#f19qsoquij7yfo)" rx="19.9706" ry="15.4517" style="stroke: #A80036; stroke-width: 1.5;"/><text fill="#33335B" font-family="sans-serif" font-size="14" lengthAdjust="spacingAndGlyphs" textLength="24" x="621.9106" y="312.3064">LL4</text><ellipse cx="57.9706" cy="123.0017" fill="#F6ED80" filter="url(#f19qsoquij7yfo)" rx="19.9706" ry="15.4517" style="stroke: #A80036; stroke-width: 1.5;"/><text fill="#33335B" font-family="sans-serif" font-size="14" lengthAdjust="spacingAndGlyphs" textLength="24" x="45.9706" y="128.3064">LL1</text><!--MD5=[5d22f46591651d873fa5f01919463b1f]
entity buf1--><rect fill="#FFFFFF" filter="url(#f19qsoquij7yfo)" height="90.4375" style="stroke: #000000; stroke-width: 1.5;" width="102" x="137.94" y="77.78"/><text fill="#33335B" font-family="sans-serif" font-size="14" lengthAdjust="spacingAndGlyphs" textLength="35" x="147.94" y="102.3132">BUF1</text><text fill="#33335B" font-family="sans-serif" font-size="14" lengthAdjust="spacingAndGlyphs" textLength="0" x="151.94" y="119.9226"/><text fill="#33335B" font-family="sans-serif" font-size="14" lengthAdjust="spacingAndGlyphs" textLength="82" x="147.94" y="137.532">10ms of data</text><text fill="#33335B" font-family="sans-serif" font-size="14" lengthAdjust="spacingAndGlyphs" textLength="0" x="151.94" y="155.1413"/><ellipse cx="345.9419" cy="153.0017" fill="#ADD1B2" filter="url(#f19qsoquij7yfo)" rx="22.0919" ry="15.4517" style="stroke: #A80036; stroke-width: 1.5;"/><text fill="#33335B" font-family="sans-serif" font-size="14" lengthAdjust="spacingAndGlyphs" textLength="27" x="332.4419" y="158.3064">DP1</text><path d="M299.94,59.65 L299.94,102.3531 A0,0 0 0 0 299.94,102.3531 L341.94,102.3531 L345.94,137.25 L349.94,102.3531 L391.94,102.3531 A0,0 0 0 0 391.94,102.3531 L391.94,69.65 L381.94,59.65 L299.94,59.65 A0,0 0 0 0 299.94,59.65 " fill="#F6ED80" filter="url(#f19qsoquij7yfo)" style="stroke: #D6D6DE; stroke-width: 1.0;"/><path d="M381.94,59.65 L381.94,69.65 L391.94,69.65 L381.94,59.65 " fill="#F6ED80" style="stroke: #D6D6DE; stroke-width: 1.0;"/><text fill="#33335B" font-family="sans-serif" font-size="13" lengthAdjust="spacingAndGlyphs" textLength="71" x="305.94" y="78.1451">period 10ms</text><text fill="#33335B" font-family="sans-serif" font-size="13" lengthAdjust="spacingAndGlyphs" textLength="60" x="305.94" y="94.4967">LPT:  8ms</text><!--MD5=[09669385afe7e2c2493411eba046fab2]
entity buf2--><rect fill="#FFFFFF" filter="url(#f19qsoquij7yfo)" height="90.4375" style="stroke: #000000; stroke-width: 1.5;" width="102" x="451.94" y="77.78"/><text fill="#33335B" font-family="sans-serif" font-size="14" lengthAdjust="spacingAndGlyphs" textLength="35" x="461.94" y="102.3132">BUF2</text><text fill="#33335B" font-family="sans-serif" font-size="14" lengthAdjust="spacingAndGlyphs" textLength="0" x="465.94" y="119.9226"/><text fill="#33335B" font-family="sans-serif" font-size="14" lengthAdjust="spacingAndGlyphs" textLength="82" x="461.94" y="137.532">10ms of data</text><text fill="#33335B" font-family="sans-serif" font-size="14" lengthAdjust="spacingAndGlyphs" textLength="0" x="465.94" y="155.1413"/><ellipse cx="633.9106" cy="123.0017" fill="#F6ED80" filter="url(#f19qsoquij7yfo)" rx="19.9706" ry="15.4517" style="stroke: #A80036; stroke-width: 1.5;"/><text fill="#33335B" font-family="sans-serif" font-size="14" lengthAdjust="spacingAndGlyphs" textLength="24" x="621.9106" y="128.3064">LL2</text><!--MD5=[b2dd2635067e76b17d218d756c6c52ae]
link LL1 to buf1--><path d="M78.28,123 C92.36,123 112.21,123 131.16,123 " fill="none" id="LL1-&gt;buf1" style="stroke: #F05772; stroke-width: 1.0;"/><polygon fill="#F05772" points="136.03,123,127.03,119,131.03,123,127.03,127,136.03,123" style="stroke: #F05772; stroke-width: 1.0;"/><!--MD5=[c7316dfc67482ce279d9110b816fc5a0]
link buf1 to DP1--><path d="M240.27,132.74 C266.06,137.73 296.45,143.62 317.83,147.75 " fill="none" id="buf1-&gt;DP1" style="stroke: #F05772; stroke-width: 1.0;"/><polygon fill="#F05772" points="322.67,148.69,314.5849,143.0658,317.7596,147.7479,313.0775,150.9225,322.67,148.69" style="stroke: #F05772; stroke-width: 1.0;"/><!--MD5=[b45ee035049d2fe48c2104e99a9478e3]
link DP1 to buf2--><path d="M367.52,149.02 C387.35,145.18 418.26,139.2 445.44,133.94 " fill="none" id="DP1-&gt;buf2" style="stroke: #F05772; stroke-width: 1.0;"/><polygon fill="#F05772" points="450.05,133.04,440.4501,130.8396,445.1427,133.9986,441.9838,138.6912,450.05,133.04" style="stroke: #F05772; stroke-width: 1.0;"/><!--MD5=[ba45fc12d4b46d0997ce03799bc687ce]
link buf2 to LL2--><path d="M554.17,123 C572.37,123 592.16,123 607.34,123 " fill="none" id="buf2-&gt;LL2" style="stroke: #F05772; stroke-width: 1.0;"/><polygon fill="#F05772" points="612.04,123,603.04,119,607.04,123,603.04,127,612.04,123" style="stroke: #F05772; stroke-width: 1.0;"/><!--MD5=[8c16d253a91d43b818ff7e8539e7b196]
link LL3 to buf3--><path d="M78.28,307 C93.37,307 115.09,307 135.23,307 " fill="none" id="LL3-&gt;buf3" style="stroke: #F05772; stroke-width: 1.0;"/><polygon fill="#F05772" points="140.19,307,131.19,303,135.19,307,131.19,311,140.19,307" style="stroke: #F05772; stroke-width: 1.0;"/><!--MD5=[72b687795d18b2e667aa0ae1fe9d11d9]
link buf3 to DP2--><path d="M236.03,315.92 C262.67,321.08 295.27,327.39 317.82,331.75 " fill="none" id="buf3-&gt;DP2" style="stroke: #F05772; stroke-width: 1.0;"/><polygon fill="#F05772" points="322.71,332.7,314.6279,327.0715,317.8001,331.7552,313.1163,334.9274,322.71,332.7" style="stroke: #F05772; stroke-width: 1.0;"/><!--MD5=[0774fed17e7ad6fdd3b899cc7941ebd3]
link DP2 to buf4--><path d="M367.52,333.02 C388.27,329 421.15,322.64 449.19,317.21 " fill="none" id="DP2-&gt;buf4" style="stroke: #F05772; stroke-width: 1.0;"/><polygon fill="#F05772" points="453.98,316.28,444.3875,314.0475,449.0696,317.2221,445.8949,321.9042,453.98,316.28" style="stroke: #F05772; stroke-width: 1.0;"/><!--MD5=[c3b82ed19e7c6b4f068bf36c11db2025]
link buf4 to LL4--><path d="M550.14,307 C569.41,307 591.05,307 607.38,307 " fill="none" id="buf4-&gt;LL4" style="stroke: #F05772; stroke-width: 1.0;"/><polygon fill="#F05772" points="612.06,307,603.06,303,607.06,307,603.06,311,612.06,307" style="stroke: #F05772; stroke-width: 1.0;"/><!--MD5=[e7468b21182d9522a1810466c336af55]
@startuml
hidefootbox
skinparam componentStyle uml2

skinparam defaultFontColor	#33335b

skinparam rectangle {
	color		#d6d6de
	backgroundColor	#ffffff
}

skinparam component {
	backgroundColor	#ffffff
	borderColor	#33335b
	arrowColor	#f05772
}

skinparam interface {
	backgroundColor	#ffffff
	borderColor	#f05772
}

skinparam class {
	backgroundColor	#ffffff
	borderColor	#33335b
	arrowColor	#f05772
}
skinparam stereotypeCBackgroundColor	#6fccdd

skinparam sequence {
	arrowColor		#4a4a86
	lifeLineBorderColor	#f05772
	groupBorderColor	#a1a1ca
	boxBorderColor		#a1a1ca
	dividerBorderColor	#d6d6de
	dividerBorderThickness	1
}
skinparam participant {
	borderColor		#33335b
	backgroundColor		#ffffff
}
skinparam actor {
	borderColor		#33335b
	backgroundColor		#ffffff
}

skinparam state {
	borderColor		#33335b
	backgroundColor		#ffffff
}

skinparam node {
	backgroundColor		#ffffff
}

skinparam note {
	backgroundColor 	#f6ed80
	borderColor		#d6d6de
}

skinparam activity {
	borderColor		#33335b
	backgroundColor		#ffffff
}

skinparam activityDiamond {
	borderColor		#33335b
	backgroundColor		#ffffff
}

skinparam arrowColor	#f05772
skinparam maxMessageSize 400
skinparam BoxPadding 4
left to right direction
 
package pipeline2{
    (LL3)  #f6ed80
    rectangle "BUF3\n\n0ms of data\n" as buf3 
    (DP2)  #ADD1B2
    note bottom of DP2
        period 5ms
        LPT: 1ms
    end note
    rectangle "BUF4\n\n0ms of data\n" as buf4 
    (LL4)  #f6ed80
}

package pipeline1{
    (LL1) #f6ed80
    rectangle "BUF1\n\n10ms of data\n" as buf1
    (DP1) #ADD1B2
    note bottom of DP1
        period 10ms
        LPT:  8ms
    end note
    rectangle "BUF2\n\n10ms of data\n" as buf2 
    (LL2)  #f6ed80
 }

LL1 - -> buf1
buf1 - -> DP1
DP1 - -> buf2
buf2 - -> LL2

LL3 - -> buf3
buf3 - -> DP2
DP2 - -> buf4
buf4 - -> LL4

@enduml

PlantUML version 1.2019.12(Sun Nov 03 11:24:54 CET 2019)
(GPL source distribution)
Java Runtime: OpenJDK Runtime Environment
JVM: OpenJDK 64-Bit Server VM
Java Version: 21.0.8+9-LTS
Operating System: Windows 11
Default Encoding: UTF-8
Language: en
Country: US
--></g></svg>