<?xml version="1.0" encoding="UTF-8" standalone="no"?><svg xmlns="http://www.w3.org/2000/svg" xmlns:xlink="http://www.w3.org/1999/xlink" contentScriptType="application/ecmascript" contentStyleType="text/css" height="240px" preserveAspectRatio="none" style="width:915px;height:240px;" version="1.1" viewBox="0 0 915 240" width="915px" zoomAndPan="magnify"><defs><filter height="300%" id="f1g31x5dwr6b1l" width="300%" x="-1" y="-1"><feGaussianBlur result="blurOut" stdDeviation="2.0"/><feColorMatrix in="blurOut" result="blurOut2" type="matrix" values="0 0 0 0 0 0 0 0 0 0 0 0 0 0 0 0 0 0 .4 0"/><feOffset dx="4.0" dy="4.0" in="blurOut2" result="blurOut3"/><feBlend in="SourceGraphic" in2="blurOut3" mode="normal"/></filter></defs><g><!--MD5=[08f6cce9cdb713ff0963d796e80c42eb]
cluster pipeline1--><polygon fill="#FFFFFF" filter="url(#f1g31x5dwr6b1l)" points="22,24,93,24,100,47.6094,443.88,47.6094,443.88,114,22,114,22,24" style="stroke: #000000; stroke-width: 1.5;"/><line style="stroke: #000000; stroke-width: 1.5;" x1="22" x2="100" y1="47.6094" y2="47.6094"/><text fill="#33335B" font-family="sans-serif" font-size="14" font-weight="bold" lengthAdjust="spacingAndGlyphs" textLength="65" x="26" y="40.5332">pipeline1</text><!--MD5=[dcc7fca67b47b28e5d5fa50443da3728]
cluster pipeline2--><polygon fill="#FFFFFF" filter="url(#f1g31x5dwr6b1l)" points="22,138,93,138,100,161.6094,443.88,161.6094,443.88,228,22,228,22,138" style="stroke: #000000; stroke-width: 1.5;"/><line style="stroke: #000000; stroke-width: 1.5;" x1="22" x2="100" y1="161.6094" y2="161.6094"/><text fill="#33335B" font-family="sans-serif" font-size="14" font-weight="bold" lengthAdjust="spacingAndGlyphs" textLength="65" x="26" y="154.5332">pipeline2</text><!--MD5=[134d2326e43de932c39a561435913ffb]
cluster pipeline3--><polygon fill="#FFFFFF" filter="url(#f1g31x5dwr6b1l)" points="471.88,81,542.88,81,549.88,104.6094,893.76,104.6094,893.76,171,471.88,171,471.88,81" style="stroke: #000000; stroke-width: 1.5;"/><line style="stroke: #000000; stroke-width: 1.5;" x1="471.88" x2="549.88" y1="104.6094" y2="104.6094"/><text fill="#33335B" font-family="sans-serif" font-size="14" font-weight="bold" lengthAdjust="spacingAndGlyphs" textLength="65" x="475.88" y="97.5332">pipeline3</text><ellipse cx="57.9706" cy="79.0017" fill="#ADD1B2" filter="url(#f1g31x5dwr6b1l)" rx="19.9706" ry="15.4517" style="stroke: #A80036; stroke-width: 1.5;"/><text fill="#33335B" font-family="sans-serif" font-size="14" lengthAdjust="spacingAndGlyphs" textLength="24" x="45.9706" y="84.3064">LL1</text><ellipse cx="282.9106" cy="79.0017" fill="#ADD1B2" filter="url(#f1g31x5dwr6b1l)" rx="19.9706" ry="15.4517" style="stroke: #A80036; stroke-width: 1.5;"/><text fill="#33335B" font-family="sans-serif" font-size="14" lengthAdjust="spacingAndGlyphs" textLength="24" x="270.9106" y="84.3064">LL2</text><!--MD5=[b025d94079d90157d4ff40d5b1c1f62c]
entity buffer1--><rect fill="#ADD1B2" filter="url(#f1g31x5dwr6b1l)" height="37.6094" style="stroke: #000000; stroke-width: 1.5;" width="65" x="137.94" y="60.2"/><text fill="#33335B" font-family="sans-serif" font-size="14" lengthAdjust="spacingAndGlyphs" textLength="45" x="147.94" y="84.7332">buffer1</text><!--MD5=[d297bbfaf4fbd02c0aff6127c04bce39]
entity buffer2--><rect fill="#ADD1B2" filter="url(#f1g31x5dwr6b1l)" height="37.6094" style="stroke: #000000; stroke-width: 1.5;" width="65" x="362.88" y="60.2"/><text fill="#33335B" font-family="sans-serif" font-size="14" lengthAdjust="spacingAndGlyphs" textLength="45" x="372.88" y="84.7332">buffer2</text><ellipse cx="57.9706" cy="193.0017" fill="#B4A7E5" filter="url(#f1g31x5dwr6b1l)" rx="19.9706" ry="15.4517" style="stroke: #A80036; stroke-width: 1.5;"/><text fill="#33335B" font-family="sans-serif" font-size="14" lengthAdjust="spacingAndGlyphs" textLength="24" x="45.9706" y="198.3064">LL5</text><ellipse cx="282.9106" cy="193.0017" fill="#B4A7E5" filter="url(#f1g31x5dwr6b1l)" rx="19.9706" ry="15.4517" style="stroke: #A80036; stroke-width: 1.5;"/><text fill="#33335B" font-family="sans-serif" font-size="14" lengthAdjust="spacingAndGlyphs" textLength="24" x="270.9106" y="198.3064">LL6</text><!--MD5=[ec16d91abbcd5b8327e2b03ddb981ff1]
entity buffer5--><rect fill="#B4A7E5" filter="url(#f1g31x5dwr6b1l)" height="37.6094" style="stroke: #000000; stroke-width: 1.5;" width="65" x="137.94" y="174.2"/><text fill="#33335B" font-family="sans-serif" font-size="14" lengthAdjust="spacingAndGlyphs" textLength="45" x="147.94" y="198.7332">buffer5</text><!--MD5=[e72903ff9dccc8b38f9ba8b53d83b2aa]
entity buffer6--><rect fill="#B4A7E5" filter="url(#f1g31x5dwr6b1l)" height="37.6094" style="stroke: #000000; stroke-width: 1.5;" width="65" x="362.88" y="174.2"/><text fill="#33335B" font-family="sans-serif" font-size="14" lengthAdjust="spacingAndGlyphs" textLength="45" x="372.88" y="198.7332">buffer6</text><ellipse cx="507.8506" cy="136.0017" fill="#E3664A" filter="url(#f1g31x5dwr6b1l)" rx="19.9706" ry="15.4517" style="stroke: #A80036; stroke-width: 1.5;"/><text fill="#33335B" font-family="sans-serif" font-size="14" lengthAdjust="spacingAndGlyphs" textLength="24" x="495.8506" y="141.3064">LL3</text><ellipse cx="732.7906" cy="136.0017" fill="#E3664A" filter="url(#f1g31x5dwr6b1l)" rx="19.9706" ry="15.4517" style="stroke: #A80036; stroke-width: 1.5;"/><text fill="#33335B" font-family="sans-serif" font-size="14" lengthAdjust="spacingAndGlyphs" textLength="24" x="720.7906" y="141.3064">LL4</text><!--MD5=[982f0465017ff0392b918fe8fc6ac552]
entity buffer3--><rect fill="#E3664A" filter="url(#f1g31x5dwr6b1l)" height="37.6094" style="stroke: #000000; stroke-width: 1.5;" width="65" x="587.82" y="117.2"/><text fill="#33335B" font-family="sans-serif" font-size="14" lengthAdjust="spacingAndGlyphs" textLength="45" x="597.82" y="141.7332">buffer3</text><!--MD5=[c734b12607c9266430a149c6c718c159]
entity buffer4--><rect fill="#E3664A" filter="url(#f1g31x5dwr6b1l)" height="37.6094" style="stroke: #000000; stroke-width: 1.5;" width="65" x="812.76" y="117.2"/><text fill="#33335B" font-family="sans-serif" font-size="14" lengthAdjust="spacingAndGlyphs" textLength="45" x="822.76" y="141.7332">buffer4</text><!--MD5=[bdb3aff34583b18e7651d67fbd191905]
link LL1 to buffer1--><path d="M78.21,79 C92.75,79 113.17,79 131.01,79 " fill="none" id="LL1-&gt;buffer1" style="stroke: #F05772; stroke-width: 1.0;"/><polygon fill="#F05772" points="135.94,79,126.94,75,130.94,79,126.94,83,135.94,79" style="stroke: #F05772; stroke-width: 1.0;"/><!--MD5=[ddca08f719da5652cf97eb5233615f78]
link buffer1 to LL2--><path d="M203.39,79 C220.12,79 240.34,79 256.06,79 " fill="none" id="buffer1-&gt;LL2" style="stroke: #F05772; stroke-width: 1.0;"/><polygon fill="#F05772" points="260.99,79,251.99,75,255.99,79,251.99,83,260.99,79" style="stroke: #F05772; stroke-width: 1.0;"/><!--MD5=[4a7453b6c0e663c1e3f4db90b51af816]
link LL2 to buffer2--><path d="M303.15,79 C317.69,79 338.11,79 355.95,79 " fill="none" id="LL2-&gt;buffer2" style="stroke: #F05772; stroke-width: 1.0;"/><polygon fill="#F05772" points="360.88,79,351.88,75,355.88,79,351.88,83,360.88,79" style="stroke: #F05772; stroke-width: 1.0;"/><!--MD5=[8f3bec1df568cbe4d95c21f57a6ef43a]
link LL5 to buffer5--><path d="M78.21,193 C92.75,193 113.17,193 131.01,193 " fill="none" id="LL5-&gt;buffer5" style="stroke: #F05772; stroke-width: 1.0;"/><polygon fill="#F05772" points="135.94,193,126.94,189,130.94,193,126.94,197,135.94,193" style="stroke: #F05772; stroke-width: 1.0;"/><!--MD5=[61dee837082c9f4b62f0febf60d9f6db]
link buffer5 to LL6--><path d="M203.39,193 C220.12,193 240.34,193 256.06,193 " fill="none" id="buffer5-&gt;LL6" style="stroke: #F05772; stroke-width: 1.0;"/><polygon fill="#F05772" points="260.99,193,251.99,189,255.99,193,251.99,197,260.99,193" style="stroke: #F05772; stroke-width: 1.0;"/><!--MD5=[e1d50a52fe2bed09ba96e70e11471fd5]
link LL6 to buffer6--><path d="M303.15,193 C317.69,193 338.11,193 355.95,193 " fill="none" id="LL6-&gt;buffer6" style="stroke: #F05772; stroke-width: 1.0;"/><polygon fill="#F05772" points="360.88,193,351.88,189,355.88,193,351.88,197,360.88,193" style="stroke: #F05772; stroke-width: 1.0;"/><!--MD5=[d49c5594cf713774dca8fdc228141e4c]
link LL3 to buffer3--><path d="M528.1,136 C542.63,136 563.05,136 580.89,136 " fill="none" id="LL3-&gt;buffer3" style="stroke: #F05772; stroke-width: 1.0;"/><polygon fill="#F05772" points="585.82,136,576.82,132,580.82,136,576.82,140,585.82,136" style="stroke: #F05772; stroke-width: 1.0;"/><!--MD5=[60d22fdd27cc705ebc2a4e5331a4550a]
link buffer3 to LL4--><path d="M653.28,136 C670,136 690.22,136 705.95,136 " fill="none" id="buffer3-&gt;LL4" style="stroke: #F05772; stroke-width: 1.0;"/><polygon fill="#F05772" points="710.88,136,701.88,132,705.88,136,701.88,140,710.88,136" style="stroke: #F05772; stroke-width: 1.0;"/><!--MD5=[47d115fcb65334a7d6a4a5b742771a4a]
link LL4 to buffer4--><path d="M753.04,136 C767.57,136 788,136 805.84,136 " fill="none" id="LL4-&gt;buffer4" style="stroke: #F05772; stroke-width: 1.0;"/><polygon fill="#F05772" points="810.76,136,801.76,132,805.76,136,801.76,140,810.76,136" style="stroke: #F05772; stroke-width: 1.0;"/><!--MD5=[b85809447b766c3bdc49e6e9c585449d]
link buffer2 to LL3--><path d="M428.33,95.49 C446.5,104.86 468.77,116.35 484.95,124.7 " fill="none" id="buffer2-&gt;LL3" style="stroke: #F05772; stroke-width: 1.0;"/><polygon fill="#F05772" points="489.27,126.93,483.1164,119.2402,484.8297,124.6313,479.4386,126.3446,489.27,126.93" style="stroke: #F05772; stroke-width: 1.0;"/><!--MD5=[148b377758c906964367d5eac8bf18e2]
link buffer6 to LL3--><path d="M428.33,176.51 C446.5,167.14 468.77,155.65 484.95,147.3 " fill="none" id="buffer6-&gt;LL3" style="stroke: #F05772; stroke-width: 1.0;"/><polygon fill="#F05772" points="489.27,145.07,479.4386,145.6554,484.8297,147.3687,483.1164,152.7598,489.27,145.07" style="stroke: #F05772; stroke-width: 1.0;"/><!--MD5=[0fc4307f066fbbb540f17ee20bc3f9ef]
@startuml
hidefootbox
skinparam componentStyle uml2

skinparam defaultFontColor	#33335b

skinparam rectangle {
	color		#d6d6de
	backgroundColor	#ffffff
}

skinparam component {
	backgroundColor	#ffffff
	borderColor	#33335b
	arrowColor	#f05772
}

skinparam interface {
	backgroundColor	#ffffff
	borderColor	#f05772
}

skinparam class {
	backgroundColor	#ffffff
	borderColor	#33335b
	arrowColor	#f05772
}
skinparam stereotypeCBackgroundColor	#6fccdd

skinparam sequence {
	arrowColor		#4a4a86
	lifeLineBorderColor	#f05772
	groupBorderColor	#a1a1ca
	boxBorderColor		#a1a1ca
	dividerBorderColor	#d6d6de
	dividerBorderThickness	1
}
skinparam participant {
	borderColor		#33335b
	backgroundColor		#ffffff
}
skinparam actor {
	borderColor		#33335b
	backgroundColor		#ffffff
}

skinparam state {
	borderColor		#33335b
	backgroundColor		#ffffff
}

skinparam node {
	backgroundColor		#ffffff
}

skinparam note {
	backgroundColor 	#f6ed80
	borderColor		#d6d6de
}

skinparam activity {
	borderColor		#33335b
	backgroundColor		#ffffff
}

skinparam activityDiamond {
	borderColor		#33335b
	backgroundColor		#ffffff
}

skinparam arrowColor	#f05772
skinparam maxMessageSize 400
skinparam BoxPadding 4
 left to right direction
 
package pipeline1{
    (LL1) #ADD1B2
    (LL2) #ADD1B2
    rectangle buffer1 #ADD1B2
    rectangle buffer2 #ADD1B2
 }

package pipeline2{
    (LL5) #B4A7E5
    (LL6) #B4A7E5
    rectangle buffer5 #B4A7E5
    rectangle buffer6 #B4A7E5
}

package pipeline3{
    (LL3) #E3664A
    (LL4) #E3664A
    rectangle buffer3 #E3664A
    rectangle buffer4 #E3664A
}

LL1 - -> buffer1
buffer1 - -> LL2
LL2 - -> buffer2

LL5 - -> buffer5
buffer5 - -> LL6
LL6 - -> buffer6

LL3 - -> buffer3
buffer3 - -> LL4
LL4 - -> buffer4

buffer2 - -> LL3
buffer6 - -> LL3

@enduml

PlantUML version 1.2019.12(Sun Nov 03 11:24:54 CET 2019)
(GPL source distribution)
Java Runtime: OpenJDK Runtime Environment
JVM: OpenJDK 64-Bit Server VM
Java Version: 17.0.10+7
Operating System: Windows 11
Default Encoding: Cp1252
Language: en
Country: US
--></g></svg>