<?xml version="1.0" encoding="UTF-8" standalone="no"?><svg xmlns="http://www.w3.org/2000/svg" xmlns:xlink="http://www.w3.org/1999/xlink" contentScriptType="application/ecmascript" contentStyleType="text/css" height="159px" preserveAspectRatio="none" style="width:953px;height:159px;" version="1.1" viewBox="0 0 953 159" width="953px" zoomAndPan="magnify"><defs><filter height="300%" id="f228wlzxlk0xv" width="300%" x="-1" y="-1"><feGaussianBlur result="blurOut" stdDeviation="2.0"/><feColorMatrix in="blurOut" result="blurOut2" type="matrix" values="0 0 0 0 0 0 0 0 0 0 0 0 0 0 0 0 0 0 .4 0"/><feOffset dx="4.0" dy="4.0" in="blurOut2" result="blurOut3"/><feBlend in="SourceGraphic" in2="blurOut3" mode="normal"/></filter></defs><g><ellipse cx="25.9706" cy="53.6517" fill="#F6ED80" filter="url(#f228wlzxlk0xv)" rx="19.9706" ry="15.4517" style="stroke: #A80036; stroke-width: 1.5;"/><text fill="#33335B" font-family="sans-serif" font-size="14" lengthAdjust="spacingAndGlyphs" textLength="24" x="13.9706" y="58.9564">LL1</text><!--MD5=[5d22f46591651d873fa5f01919463b1f]
entity buf1--><rect fill="#FFFFFF" filter="url(#f228wlzxlk0xv)" height="90.4375" style="stroke: #000000; stroke-width: 1.5;" width="110" x="105.94" y="8.43"/><text fill="#33335B" font-family="sans-serif" font-size="14" lengthAdjust="spacingAndGlyphs" textLength="35" x="115.94" y="32.9632">BUF1</text><text fill="#33335B" font-family="sans-serif" font-size="14" lengthAdjust="spacingAndGlyphs" textLength="0" x="119.94" y="50.5726"/><text fill="#33335B" font-family="sans-serif" font-size="14" lengthAdjust="spacingAndGlyphs" textLength="90" x="115.94" y="68.182">109ms of data</text><text fill="#33335B" font-family="sans-serif" font-size="14" lengthAdjust="spacingAndGlyphs" textLength="0" x="119.94" y="85.7913"/><ellipse cx="325.4419" cy="53.6517" fill="#ADD1B2" filter="url(#f228wlzxlk0xv)" rx="22.0919" ry="15.4517" style="stroke: #A80036; stroke-width: 1.5;"/><text fill="#33335B" font-family="sans-serif" font-size="14" lengthAdjust="spacingAndGlyphs" textLength="27" x="311.9419" y="58.9564">DP1</text><path d="M275.94,104.3 L275.94,147.0031 A0,0 0 0 0 275.94,147.0031 L374.94,147.0031 A0,0 0 0 0 374.94,147.0031 L374.94,114.3 L364.94,104.3 L329.44,104.3 L325.44,69.38 L321.44,104.3 L275.94,104.3 A0,0 0 0 0 275.94,104.3 " fill="#F6ED80" filter="url(#f228wlzxlk0xv)" style="stroke: #D6D6DE; stroke-width: 1.0;"/><path d="M364.94,104.3 L364.94,114.3 L374.94,114.3 L364.94,104.3 " fill="#F6ED80" style="stroke: #D6D6DE; stroke-width: 1.0;"/><text fill="#33335B" font-family="sans-serif" font-size="13" lengthAdjust="spacingAndGlyphs" textLength="78" x="281.94" y="122.7951">period 100ms</text><text fill="#33335B" font-family="sans-serif" font-size="13" lengthAdjust="spacingAndGlyphs" textLength="60" x="281.94" y="139.1467">LPT:  5ms</text><!--MD5=[09669385afe7e2c2493411eba046fab2]
entity buf2--><rect fill="#FFFFFF" filter="url(#f228wlzxlk0xv)" height="90.4375" style="stroke: #000000; stroke-width: 1.5;" width="102" x="434.94" y="8.43"/><text fill="#33335B" font-family="sans-serif" font-size="14" lengthAdjust="spacingAndGlyphs" textLength="35" x="444.94" y="32.9632">BUF2</text><text fill="#33335B" font-family="sans-serif" font-size="14" lengthAdjust="spacingAndGlyphs" textLength="0" x="448.94" y="50.5726"/><text fill="#33335B" font-family="sans-serif" font-size="14" lengthAdjust="spacingAndGlyphs" textLength="82" x="444.94" y="68.182">10ms of data</text><text fill="#33335B" font-family="sans-serif" font-size="14" lengthAdjust="spacingAndGlyphs" textLength="0" x="448.94" y="85.7913"/><ellipse cx="642.9419" cy="53.6517" fill="#ADD1B2" filter="url(#f228wlzxlk0xv)" rx="22.0919" ry="15.4517" style="stroke: #A80036; stroke-width: 1.5;"/><text fill="#33335B" font-family="sans-serif" font-size="14" lengthAdjust="spacingAndGlyphs" textLength="27" x="629.4419" y="58.9564">DP2</text><path d="M596.94,104.3 L596.94,147.0031 A0,0 0 0 0 596.94,147.0031 L688.94,147.0031 A0,0 0 0 0 688.94,147.0031 L688.94,114.3 L678.94,104.3 L646.94,104.3 L642.94,69.38 L638.94,104.3 L596.94,104.3 A0,0 0 0 0 596.94,104.3 " fill="#F6ED80" filter="url(#f228wlzxlk0xv)" style="stroke: #D6D6DE; stroke-width: 1.0;"/><path d="M678.94,104.3 L678.94,114.3 L688.94,114.3 L678.94,104.3 " fill="#F6ED80" style="stroke: #D6D6DE; stroke-width: 1.0;"/><text fill="#33335B" font-family="sans-serif" font-size="13" lengthAdjust="spacingAndGlyphs" textLength="71" x="602.94" y="122.7951">period 10ms</text><text fill="#33335B" font-family="sans-serif" font-size="13" lengthAdjust="spacingAndGlyphs" textLength="60" x="602.94" y="139.1467">LPT:  9ms</text><!--MD5=[314e2eb86b776a866fe0256c837c215b]
entity buf3--><rect fill="#FFFFFF" filter="url(#f228wlzxlk0xv)" height="90.4375" style="stroke: #000000; stroke-width: 1.5;" width="94" x="748.94" y="8.43"/><text fill="#33335B" font-family="sans-serif" font-size="14" lengthAdjust="spacingAndGlyphs" textLength="35" x="758.94" y="32.9632">BUF3</text><text fill="#33335B" font-family="sans-serif" font-size="14" lengthAdjust="spacingAndGlyphs" textLength="0" x="762.94" y="50.5726"/><text fill="#33335B" font-family="sans-serif" font-size="14" lengthAdjust="spacingAndGlyphs" textLength="74" x="758.94" y="68.182">6ms of data</text><text fill="#33335B" font-family="sans-serif" font-size="14" lengthAdjust="spacingAndGlyphs" textLength="0" x="762.94" y="85.7913"/><ellipse cx="922.9106" cy="53.6517" fill="#F6ED80" filter="url(#f228wlzxlk0xv)" rx="19.9706" ry="15.4517" style="stroke: #A80036; stroke-width: 1.5;"/><text fill="#33335B" font-family="sans-serif" font-size="14" lengthAdjust="spacingAndGlyphs" textLength="24" x="910.9106" y="58.9564">LL2</text><!--MD5=[df65c77ac4b23fee284ac96141319ade]
link mod1 to buf1--><path d="M46.31,53.65 C60.28,53.65 79.99,53.65 99.08,53.65 " fill="none" id="mod1-&gt;buf1" style="stroke: #F05772; stroke-width: 1.0;"/><polygon fill="#F05772" points="104,53.65,95,49.65,99,53.65,95,57.65,104,53.65" style="stroke: #F05772; stroke-width: 1.0;"/><!--MD5=[3da331e53385dbf693d9d454d6235b4b]
link buf1 to mod2--><path d="M216.05,53.65 C243.11,53.65 274.7,53.65 296.78,53.65 " fill="none" id="buf1-&gt;mod2" style="stroke: #F05772; stroke-width: 1.0;"/><polygon fill="#F05772" points="301.51,53.65,292.51,49.65,296.51,53.65,292.51,57.65,301.51,53.65" style="stroke: #F05772; stroke-width: 1.0;"/><!--MD5=[eed46d208007f879a35f6ae7d3ec9c2d]
link mod2 to buf2--><path d="M347.82,53.65 C368.4,53.65 400.43,53.65 428.36,53.65 " fill="none" id="mod2-&gt;buf2" style="stroke: #F05772; stroke-width: 1.0;"/><polygon fill="#F05772" points="433.11,53.65,424.11,49.65,428.11,53.65,424.11,57.65,433.11,53.65" style="stroke: #F05772; stroke-width: 1.0;"/><!--MD5=[920971b403b6dd8672d0721d775be8ab]
link buf2 to mod3--><path d="M537.27,53.65 C562.74,53.65 592.7,53.65 614.03,53.65 " fill="none" id="buf2-&gt;mod3" style="stroke: #F05772; stroke-width: 1.0;"/><polygon fill="#F05772" points="618.84,53.65,609.84,49.65,613.84,53.65,609.84,57.65,618.84,53.65" style="stroke: #F05772; stroke-width: 1.0;"/><!--MD5=[d2dd8acab52e70a55c229c1191f54284]
link mod3 to buf3--><path d="M665.26,53.65 C685.2,53.65 715.81,53.65 742.28,53.65 " fill="none" id="mod3-&gt;buf3" style="stroke: #F05772; stroke-width: 1.0;"/><polygon fill="#F05772" points="747.04,53.65,738.04,49.65,742.04,53.65,738.04,57.65,747.04,53.65" style="stroke: #F05772; stroke-width: 1.0;"/><!--MD5=[cd5393936a715c9ee6f62f24a0c24840]
link buf3 to mod4--><path d="M843.12,53.65 C861.13,53.65 881.08,53.65 896.4,53.65 " fill="none" id="buf3-&gt;mod4" style="stroke: #F05772; stroke-width: 1.0;"/><polygon fill="#F05772" points="901.15,53.65,892.15,49.65,896.15,53.65,892.15,57.65,901.15,53.65" style="stroke: #F05772; stroke-width: 1.0;"/><!--MD5=[1cd54fab1e59ba219bdf7e8dac7393db]
@startuml
hidefootbox
skinparam componentStyle uml2

skinparam defaultFontColor	#33335b

skinparam rectangle {
	color		#d6d6de
	backgroundColor	#ffffff
}

skinparam component {
	backgroundColor	#ffffff
	borderColor	#33335b
	arrowColor	#f05772
}

skinparam interface {
	backgroundColor	#ffffff
	borderColor	#f05772
}

skinparam class {
	backgroundColor	#ffffff
	borderColor	#33335b
	arrowColor	#f05772
}
skinparam stereotypeCBackgroundColor	#6fccdd

skinparam sequence {
	arrowColor		#4a4a86
	lifeLineBorderColor	#f05772
	groupBorderColor	#a1a1ca
	boxBorderColor		#a1a1ca
	dividerBorderColor	#d6d6de
	dividerBorderThickness	1
}
skinparam participant {
	borderColor		#33335b
	backgroundColor		#ffffff
}
skinparam actor {
	borderColor		#33335b
	backgroundColor		#ffffff
}

skinparam state {
	borderColor		#33335b
	backgroundColor		#ffffff
}

skinparam node {
	backgroundColor		#ffffff
}

skinparam note {
	backgroundColor 	#f6ed80
	borderColor		#d6d6de
}

skinparam activity {
	borderColor		#33335b
	backgroundColor		#ffffff
}

skinparam activityDiamond {
	borderColor		#33335b
	backgroundColor		#ffffff
}

skinparam arrowColor	#f05772
skinparam maxMessageSize 400
skinparam BoxPadding 4
left to right direction
(LL1) as mod1 #f6ed80

rectangle "BUF1\n\n109ms of data\n" as buf1

(DP1) as mod2 #ADD1B2

note bottom of mod2
  period 100ms
  LPT:  5ms
end note

rectangle "BUF2\n\n10ms of data\n" as buf2

(DP2) as mod3 #ADD1B2

note bottom of mod3
  period 10ms
  LPT:  9ms
end note

rectangle "BUF3\n\n6ms of data\n" as buf3

(LL2) as mod4 #f6ed80


mod1- -> buf1
buf1 - -> mod2
mod2- ->buf2
buf2 - -> mod3
mod3- ->buf3
buf3 - -> mod4
@enduml 

PlantUML version 1.2019.12(Sun Nov 03 11:24:54 CET 2019)
(GPL source distribution)
Java Runtime: OpenJDK Runtime Environment
JVM: OpenJDK 64-Bit Server VM
Java Version: 21.0.8+9-LTS
Operating System: Windows 11
Default Encoding: UTF-8
Language: en
Country: US
--></g></svg>