<?xml version="1.0" encoding="UTF-8" standalone="no"?><svg xmlns="http://www.w3.org/2000/svg" xmlns:xlink="http://www.w3.org/1999/xlink" contentScriptType="application/ecmascript" contentStyleType="text/css" height="159px" preserveAspectRatio="none" style="width:915px;height:159px;" version="1.1" viewBox="0 0 915 159" width="915px" zoomAndPan="magnify"><defs><filter height="300%" id="fqmteo6jdujt8" width="300%" x="-1" y="-1"><feGaussianBlur result="blurOut" stdDeviation="2.0"/><feColorMatrix in="blurOut" result="blurOut2" type="matrix" values="0 0 0 0 0 0 0 0 0 0 0 0 0 0 0 0 0 0 .4 0"/><feOffset dx="4.0" dy="4.0" in="blurOut2" result="blurOut3"/><feBlend in="SourceGraphic" in2="blurOut3" mode="normal"/></filter></defs><g><ellipse cx="25.9706" cy="53.6517" fill="#F6ED80" filter="url(#fqmteo6jdujt8)" rx="19.9706" ry="15.4517" style="stroke: #A80036; stroke-width: 1.5;"/><text fill="#33335B" font-family="sans-serif" font-size="14" lengthAdjust="spacingAndGlyphs" textLength="24" x="13.9706" y="58.9564">LL1</text><!--MD5=[5d22f46591651d873fa5f01919463b1f]
entity buf1--><rect fill="#FFFFFF" filter="url(#fqmteo6jdujt8)" height="90.4375" style="stroke: #000000; stroke-width: 1.5;" width="94" x="105.94" y="8.43"/><text fill="#33335B" font-family="sans-serif" font-size="14" lengthAdjust="spacingAndGlyphs" textLength="35" x="115.94" y="32.9632">BUF1</text><text fill="#33335B" font-family="sans-serif" font-size="14" lengthAdjust="spacingAndGlyphs" textLength="0" x="119.94" y="50.5726"/><text fill="#33335B" font-family="sans-serif" font-size="14" lengthAdjust="spacingAndGlyphs" textLength="74" x="115.94" y="68.182">5ms of data</text><text fill="#33335B" font-family="sans-serif" font-size="14" lengthAdjust="spacingAndGlyphs" textLength="0" x="119.94" y="85.7913"/><ellipse cx="302.4419" cy="53.6517" fill="#ADD1B2" filter="url(#fqmteo6jdujt8)" rx="22.0919" ry="15.4517" style="stroke: #A80036; stroke-width: 1.5;"/><text fill="#33335B" font-family="sans-serif" font-size="14" lengthAdjust="spacingAndGlyphs" textLength="27" x="288.9419" y="58.9564">DP1</text><path d="M259.94,104.3 L259.94,147.0031 A0,0 0 0 0 259.94,147.0031 L344.94,147.0031 A0,0 0 0 0 344.94,147.0031 L344.94,114.3 L334.94,104.3 L306.44,104.3 L302.44,69.38 L298.44,104.3 L259.94,104.3 A0,0 0 0 0 259.94,104.3 " fill="#F6ED80" filter="url(#fqmteo6jdujt8)" style="stroke: #D6D6DE; stroke-width: 1.0;"/><path d="M334.94,104.3 L334.94,114.3 L344.94,114.3 L334.94,104.3 " fill="#F6ED80" style="stroke: #D6D6DE; stroke-width: 1.0;"/><text fill="#33335B" font-family="sans-serif" font-size="13" lengthAdjust="spacingAndGlyphs" textLength="64" x="265.94" y="122.7951">period 5ms</text><text fill="#33335B" font-family="sans-serif" font-size="13" lengthAdjust="spacingAndGlyphs" textLength="60" x="265.94" y="139.1467">LPT:  2ms</text><!--MD5=[09669385afe7e2c2493411eba046fab2]
entity buf2--><rect fill="#FFFFFF" filter="url(#fqmteo6jdujt8)" height="90.4375" style="stroke: #000000; stroke-width: 1.5;" width="94" x="404.94" y="8.43"/><text fill="#33335B" font-family="sans-serif" font-size="14" lengthAdjust="spacingAndGlyphs" textLength="35" x="414.94" y="32.9632">BUF2</text><text fill="#33335B" font-family="sans-serif" font-size="14" lengthAdjust="spacingAndGlyphs" textLength="0" x="418.94" y="50.5726"/><text fill="#33335B" font-family="sans-serif" font-size="14" lengthAdjust="spacingAndGlyphs" textLength="74" x="414.94" y="68.182">5ms of data</text><text fill="#33335B" font-family="sans-serif" font-size="14" lengthAdjust="spacingAndGlyphs" textLength="0" x="418.94" y="85.7913"/><ellipse cx="604.9419" cy="53.6517" fill="#ADD1B2" filter="url(#fqmteo6jdujt8)" rx="22.0919" ry="15.4517" style="stroke: #A80036; stroke-width: 1.5;"/><text fill="#33335B" font-family="sans-serif" font-size="14" lengthAdjust="spacingAndGlyphs" textLength="27" x="591.4419" y="58.9564">DP2</text><path d="M558.94,104.3 L558.94,147.0031 A0,0 0 0 0 558.94,147.0031 L650.94,147.0031 A0,0 0 0 0 650.94,147.0031 L650.94,114.3 L640.94,104.3 L608.94,104.3 L604.94,69.38 L600.94,104.3 L558.94,104.3 A0,0 0 0 0 558.94,104.3 " fill="#F6ED80" filter="url(#fqmteo6jdujt8)" style="stroke: #D6D6DE; stroke-width: 1.0;"/><path d="M640.94,104.3 L640.94,114.3 L650.94,114.3 L640.94,104.3 " fill="#F6ED80" style="stroke: #D6D6DE; stroke-width: 1.0;"/><text fill="#33335B" font-family="sans-serif" font-size="13" lengthAdjust="spacingAndGlyphs" textLength="71" x="564.94" y="122.7951">period 10ms</text><text fill="#33335B" font-family="sans-serif" font-size="13" lengthAdjust="spacingAndGlyphs" textLength="60" x="564.94" y="139.1467">LPT:  6ms</text><!--MD5=[314e2eb86b776a866fe0256c837c215b]
entity buf3--><rect fill="#FFFFFF" filter="url(#fqmteo6jdujt8)" height="90.4375" style="stroke: #000000; stroke-width: 1.5;" width="94" x="710.94" y="8.43"/><text fill="#33335B" font-family="sans-serif" font-size="14" lengthAdjust="spacingAndGlyphs" textLength="35" x="720.94" y="32.9632">BUF3</text><text fill="#33335B" font-family="sans-serif" font-size="14" lengthAdjust="spacingAndGlyphs" textLength="0" x="724.94" y="50.5726"/><text fill="#33335B" font-family="sans-serif" font-size="14" lengthAdjust="spacingAndGlyphs" textLength="74" x="720.94" y="68.182">0ms of data</text><text fill="#33335B" font-family="sans-serif" font-size="14" lengthAdjust="spacingAndGlyphs" textLength="0" x="724.94" y="85.7913"/><ellipse cx="884.9106" cy="53.6517" fill="#F6ED80" filter="url(#fqmteo6jdujt8)" rx="19.9706" ry="15.4517" style="stroke: #A80036; stroke-width: 1.5;"/><text fill="#33335B" font-family="sans-serif" font-size="14" lengthAdjust="spacingAndGlyphs" textLength="24" x="872.9106" y="58.9564">LL2</text><!--MD5=[df65c77ac4b23fee284ac96141319ade]
link mod1 to buf1--><path d="M46.22,53.65 C60.43,53.65 80.49,53.65 99.33,53.65 " fill="none" id="mod1-&gt;buf1" style="stroke: #F05772; stroke-width: 1.0;"/><polygon fill="#F05772" points="104.14,53.65,95.14,49.65,99.14,53.65,95.14,57.65,104.14,53.65" style="stroke: #F05772; stroke-width: 1.0;"/><!--MD5=[3da331e53385dbf693d9d454d6235b4b]
link buf1 to mod2--><path d="M200.21,53.65 C224.3,53.65 252.95,53.65 273.62,53.65 " fill="none" id="buf1-&gt;mod2" style="stroke: #F05772; stroke-width: 1.0;"/><polygon fill="#F05772" points="278.52,53.65,269.52,49.65,273.52,53.65,269.52,57.65,278.52,53.65" style="stroke: #F05772; stroke-width: 1.0;"/><!--MD5=[eed46d208007f879a35f6ae7d3ec9c2d]
link mod2 to buf2--><path d="M324.89,53.65 C344.04,53.65 372.89,53.65 398.15,53.65 " fill="none" id="mod2-&gt;buf2" style="stroke: #F05772; stroke-width: 1.0;"/><polygon fill="#F05772" points="402.98,53.65,393.98,49.65,397.98,53.65,393.98,57.65,402.98,53.65" style="stroke: #F05772; stroke-width: 1.0;"/><!--MD5=[920971b403b6dd8672d0721d775be8ab]
link buf2 to mod3--><path d="M499.07,53.65 C524.22,53.65 554.52,53.65 576.08,53.65 " fill="none" id="buf2-&gt;mod3" style="stroke: #F05772; stroke-width: 1.0;"/><polygon fill="#F05772" points="580.95,53.65,571.95,49.65,575.95,53.65,571.95,57.65,580.95,53.65" style="stroke: #F05772; stroke-width: 1.0;"/><!--MD5=[d2dd8acab52e70a55c229c1191f54284]
link mod3 to buf3--><path d="M627.26,53.65 C647.2,53.65 677.81,53.65 704.28,53.65 " fill="none" id="mod3-&gt;buf3" style="stroke: #F05772; stroke-width: 1.0;"/><polygon fill="#F05772" points="709.04,53.65,700.04,49.65,704.04,53.65,700.04,57.65,709.04,53.65" style="stroke: #F05772; stroke-width: 1.0;"/><!--MD5=[cd5393936a715c9ee6f62f24a0c24840]
link buf3 to mod4--><path d="M805.12,53.65 C823.13,53.65 843.08,53.65 858.4,53.65 " fill="none" id="buf3-&gt;mod4" style="stroke: #F05772; stroke-width: 1.0;"/><polygon fill="#F05772" points="863.15,53.65,854.15,49.65,858.15,53.65,854.15,57.65,863.15,53.65" style="stroke: #F05772; stroke-width: 1.0;"/><!--MD5=[3cedbbcd400ac55b5f5d387d31114459]
@startuml
hidefootbox
skinparam componentStyle uml2

skinparam defaultFontColor	#33335b

skinparam rectangle {
	color		#d6d6de
	backgroundColor	#ffffff
}

skinparam component {
	backgroundColor	#ffffff
	borderColor	#33335b
	arrowColor	#f05772
}

skinparam interface {
	backgroundColor	#ffffff
	borderColor	#f05772
}

skinparam class {
	backgroundColor	#ffffff
	borderColor	#33335b
	arrowColor	#f05772
}
skinparam stereotypeCBackgroundColor	#6fccdd

skinparam sequence {
	arrowColor		#4a4a86
	lifeLineBorderColor	#f05772
	groupBorderColor	#a1a1ca
	boxBorderColor		#a1a1ca
	dividerBorderColor	#d6d6de
	dividerBorderThickness	1
}
skinparam participant {
	borderColor		#33335b
	backgroundColor		#ffffff
}
skinparam actor {
	borderColor		#33335b
	backgroundColor		#ffffff
}

skinparam state {
	borderColor		#33335b
	backgroundColor		#ffffff
}

skinparam node {
	backgroundColor		#ffffff
}

skinparam note {
	backgroundColor 	#f6ed80
	borderColor		#d6d6de
}

skinparam activity {
	borderColor		#33335b
	backgroundColor		#ffffff
}

skinparam activityDiamond {
	borderColor		#33335b
	backgroundColor		#ffffff
}

skinparam arrowColor	#f05772
skinparam maxMessageSize 400
skinparam BoxPadding 4
left to right direction
(LL1) as mod1 #f6ed80

rectangle "BUF1\n\n5ms of data\n" as buf1

(DP1) as mod2 #ADD1B2

note bottom of mod2
  period 5ms
  LPT:  2ms
end note

rectangle "BUF2\n\n5ms of data\n" as buf2

(DP2) as mod3 #ADD1B2

note bottom of mod3
  period 10ms
  LPT:  6ms
end note

rectangle "BUF3\n\n0ms of data\n" as buf3

(LL2) as mod4 #f6ed80


mod1- -> buf1
buf1 - -> mod2
mod2- ->buf2
buf2 - -> mod3
mod3- ->buf3
buf3 - -> mod4
@enduml 

PlantUML version 1.2019.12(Sun Nov 03 11:24:54 CET 2019)
(GPL source distribution)
Java Runtime: OpenJDK Runtime Environment
JVM: OpenJDK 64-Bit Server VM
Java Version: 21.0.8+9-LTS
Operating System: Windows 11
Default Encoding: UTF-8
Language: en
Country: US
--></g></svg>